<svg width="164" height="310" viewBox="0 0 164 310" fill="none" xmlns="http://www.w3.org/2000/svg">
<path opacity="0.3" d="M138.329 151.446L160.55 146.958L149.983 94.6065L124.424 99.7648C118.212 86.4873 110.759 75.9935 102.114 67.1126L116.42 44.0753L71.2877 13.6198L56.9037 35.1732C42.9425 29.708 27.2091 26.5035 12.5961 26.1163L8.0091 3.40411L-40.8771 13.2735L-36.2901 35.9857C-56.5936 43.423 -65.3996 51.28 -76.153 61.7381L-99.1737 47.4386L-129.645 92.5565L-107.571 109.449C-112.487 121.827 -115.253 134.952 -115.751 148.259L-143.335 153.828L-132.768 206.179L-108.517 201.282C-102.308 218.189 -92.8949 231.614 -80.6694 244.176L-95.4113 265.055L-50.4957 294.428L-33.7422 271.837C-19.781 277.302 -8.66543 280.877 12.9351 279.855L18.2998 306.434L67.186 296.564L61.8212 269.986C75.1424 263.959 88.4552 255.189 99.2075 244.736L120.988 259.284L150.838 214.293L129.326 201.777C135.723 185.455 139.163 169.437 138.329 151.446ZM24.5814 231.349C-18.84 240.116 -61.1354 212.045 -69.8942 168.646C-78.6529 125.247 -50.5569 82.9626 -7.13549 74.1953C36.2859 65.4281 78.5814 93.4992 87.3401 136.898C96.1 180.293 68.0029 222.582 24.5814 231.349Z" fill="#1D5FB5" stroke="white" stroke-width="4.37484"/>
</svg>
